<svg width="887" height="913" viewBox="0 0 887 913" fill="none" xmlns="http://www.w3.org/2000/svg">
<g clip-path="url(#clip0_60_6)">
<path d="M622.667 2.00457C605.867 5.07124 591.733 10.0046 575.6 18.2713C534.8 39.2046 504.4 74.8046 471.733 139.871C456.933 169.471 453.067 174.138 395.867 232.005C369.733 258.538 354 275.738 336.4 297.338C292.133 351.338 202.4 484.271 137.333 592.405C126.933 609.605 115.333 626.938 109.733 633.605C96.5333 649.205 95.4667 657.605 105.6 664.805C109.6 667.738 111.2 668.005 123.333 667.738C130.667 667.471 144 666.271 153.067 664.938C162 663.605 169.333 662.938 169.333 663.338C169.333 663.738 163.2 671.871 155.6 681.338C116.533 730.538 64.2667 796.538 51.3333 813.205C33.0667 836.671 20 853.071 10.9333 864.271C1.86667 875.605 0 879.205 0 886.405C0 896.938 8.13334 905.338 22.5333 909.605C37.2 914.005 74.1333 912.405 94.4 906.538C119.6 899.205 124.8 894.538 215.6 798.138C280.533 729.071 288.8 720.271 294 714.005C296.933 710.405 300 707.338 300.667 706.938C301.467 706.671 306.8 706.938 312.667 707.471C336.933 709.605 355.467 711.471 357.333 712.138C358.4 712.405 363.2 721.871 367.867 732.938C378.4 758.005 393.6 790.405 411.6 825.738C419.2 840.671 425.333 853.071 425.333 853.338C425.333 853.738 406.4 854.005 383.333 854.005C336.667 854.005 335.6 854.138 328.267 862.538C323.6 867.871 322.533 875.338 325.867 879.605C330.267 885.471 328.533 885.338 475.2 884.671L614.933 884.005L617.6 880.671C622.533 874.538 618.8 863.338 609.333 857.071C605.067 854.138 603.733 854.005 577.467 854.005H550L538.4 831.605C532.133 819.338 522.4 799.071 516.933 786.671C511.467 774.138 503.467 756.538 499.333 747.338C495.067 738.138 488.533 723.071 484.667 713.738C478.8 699.338 478 696.671 479.867 696.138C481.067 695.738 491.467 692.671 503.2 689.338C531.067 681.205 572.8 663.471 594 650.671C636.4 625.071 671.467 599.605 693.733 578.138C728.267 544.805 759.467 498.138 774.4 457.338C781.333 438.538 789.2 409.205 792.667 389.871C796.4 368.805 796.933 340.405 794 306.405C791.733 280.538 789.733 268.405 784.667 251.738C782.133 243.471 781.6 240.138 782.667 237.738C783.333 236.005 786.4 226.005 789.333 215.338C793.6 200.005 795.333 195.471 798.133 193.205C800 191.738 811.867 186.138 824.4 180.805C882.933 156.138 891.467 149.871 884.8 136.938C882.267 132.138 878.267 129.338 855.067 115.871C837.6 105.738 815.067 95.6046 799.867 90.9379C794.8 89.4712 794 88.5379 788.4 77.3379C780.667 62.1379 772.933 51.2046 763.067 41.8713C741.733 21.4713 716.133 8.27126 686.8 2.4046C671.467 -0.662071 638.267 -0.795429 622.667 2.00457ZM679.067 30.2713C704.267 34.0046 730.667 48.1379 746 66.0046C754.4 75.8712 758.267 82.8046 764 97.7379L768.667 110.138L783.333 115.205C798.133 120.271 817.067 128.938 830.667 136.805L838 141.071L832.667 143.338C829.733 144.671 818.933 149.471 808.667 154.005C798.4 158.538 785.6 164.138 780.4 166.405C775.067 168.671 770.667 171.205 770.667 172.005C770.667 172.805 766.4 187.738 761.333 205.338L751.867 237.071L756.4 258.538C758.933 270.405 761.733 283.871 762.533 288.671C763.333 293.471 764.267 299.471 764.667 302.005C765.2 304.538 765.867 318.671 766.267 333.338C767.733 386.138 759.2 425.338 735.867 473.605C718 510.271 687.067 548.538 653.333 575.605C627.333 596.405 616.667 603.738 590.267 618.938C555.067 639.071 537.2 647.871 514.667 656.005C502.133 660.538 465.333 670.271 454.667 672.005C451.333 672.538 447.733 673.205 446.667 673.338C445.6 673.471 440.8 674.138 436 674.671C431.2 675.338 426.4 675.871 425.333 676.005C424.267 676.138 418.533 677.071 412.667 678.138C397.6 680.805 317.2 680.538 301.6 677.738L290.533 675.738L286.267 680.671C280.4 687.338 205.333 768.271 180 795.338C140.8 836.938 112.667 865.071 104.8 870.138C100.4 873.071 93.8667 876.271 90.1333 877.338C82.2667 879.738 63.7333 883.071 54 883.871C46.2667 884.538 32 883.338 32 882.138C32 881.605 44.4 865.605 59.6 846.405C74.9333 827.338 103.2 791.605 122.667 767.205C142.133 742.671 162.267 717.605 167.467 711.338C172.667 705.071 179.333 696.938 182.133 693.205C184.933 689.471 192.133 680.271 198 672.671C203.867 665.071 209.067 658.271 209.467 657.605C210 656.805 217.867 654.671 226.8 652.671C308.933 634.405 353.2 620.671 410.133 595.605C446.667 579.471 488.533 554.938 516.667 533.071C572.8 489.338 608.133 445.205 622.267 400.671C629.733 377.071 631.333 351.205 626.533 332.405C623.733 321.071 617.733 307.738 614.133 304.805C609.867 301.205 609.2 304.405 610.133 322.405C613.333 388.005 576.267 450.271 497.333 511.871C478 526.938 451.467 542.805 418 559.471C365.067 585.738 311.333 603.605 238.133 619.338C224.267 622.405 212.133 624.538 211.067 624.405C210.133 624.138 214 621.605 219.6 618.671C225.333 615.871 233.333 611.605 237.333 609.338C241.333 606.938 256.4 598.405 270.667 590.405C321.6 561.471 379.6 521.871 406.667 497.471C444.933 462.805 462.933 439.205 453.867 435.738C450.667 434.538 444.267 438.138 428.4 450.271C364.933 498.671 314.4 533.338 272.667 556.938C235.733 577.871 163.067 614.005 157.733 614.005C155.867 614.005 155.867 613.738 157.6 611.605C158.667 610.405 166.667 597.605 175.333 583.338C210.933 524.805 286.133 410.271 314 372.005C350.267 322.271 378.8 289.471 428 240.671C453.067 215.871 473.867 194.005 478.8 187.338C483.867 180.538 493.6 163.871 502.8 146.005C531.733 89.738 541.467 76.538 568 56.2713C589.867 39.6046 610.8 32.0046 645.333 28.1379C651.333 27.4713 667.467 28.538 679.067 30.2713ZM451.2 713.071C459.6 734.138 482 783.205 498.533 817.205C508.133 836.805 516 853.205 516 853.471C516 853.738 503.6 854.005 488.4 854.005H460.667L456.267 845.605C437.333 809.738 421.2 777.738 412.267 758.005C402.133 735.871 392 712.005 392 710.671C392 710.271 395.2 710.005 399.067 709.871C402.8 709.871 414.133 708.405 424 706.805C449.2 702.405 446.667 701.871 451.2 713.071Z" fill="black"/>
<path d="M679.067 30.2713C704.267 34.0046 730.667 48.1379 746 66.0046C754.4 75.8712 758.267 82.8046 764 97.7379L768.667 110.138L783.333 115.205C798.133 120.271 817.067 128.938 830.667 136.805L838 141.071L832.667 143.338C829.733 144.671 818.933 149.471 808.667 154.005C798.4 158.538 785.6 164.138 780.4 166.405C775.067 168.671 770.667 171.205 770.667 172.005C770.667 172.805 766.4 187.738 761.333 205.338L751.867 237.071L756.4 258.538C758.933 270.405 761.733 283.871 762.533 288.671C763.333 293.471 764.267 299.471 764.667 302.005C765.2 304.538 765.867 318.671 766.267 333.338C767.733 386.138 759.2 425.338 735.867 473.605C718 510.271 687.067 548.538 653.333 575.605C627.333 596.405 616.667 603.738 590.267 618.938C555.067 639.071 537.2 647.871 514.667 656.005C502.133 660.538 465.333 670.271 454.667 672.005C451.333 672.538 447.733 673.205 446.667 673.338C445.6 673.471 440.8 674.138 436 674.671C431.2 675.338 426.4 675.871 425.333 676.005C424.267 676.138 418.533 677.071 412.667 678.138C397.6 680.805 317.2 680.538 301.6 677.738L290.533 675.738L286.267 680.671C280.4 687.338 205.333 768.271 180 795.338C140.8 836.938 112.667 865.071 104.8 870.138C100.4 873.071 93.8667 876.271 90.1333 877.338C82.2667 879.738 63.7333 883.071 54 883.871C46.2667 884.538 32 883.338 32 882.138C32 881.605 44.4 865.605 59.6 846.405C74.9333 827.338 103.2 791.605 122.667 767.205C142.133 742.671 162.267 717.605 167.467 711.338C172.667 705.071 179.333 696.938 182.133 693.205C184.933 689.471 192.133 680.271 198 672.671C203.867 665.071 209.067 658.271 209.467 657.605C210 656.805 217.867 654.671 226.8 652.671C308.933 634.405 353.2 620.671 410.133 595.605C446.667 579.471 488.533 554.938 516.667 533.071C572.8 489.338 608.133 445.205 622.267 400.671C629.733 377.071 631.333 351.205 626.533 332.405C623.733 321.071 617.733 307.738 614.133 304.805C609.867 301.205 609.2 304.405 610.133 322.405C613.333 388.005 576.267 450.271 497.333 511.871C478 526.938 451.467 542.805 418 559.471C365.067 585.738 311.333 603.605 238.133 619.338C224.267 622.405 212.133 624.538 211.067 624.405C210.133 624.138 214 621.605 219.6 618.671C225.333 615.871 233.333 611.605 237.333 609.338C241.333 606.938 256.4 598.405 270.667 590.405C321.6 561.471 379.6 521.871 406.667 497.471C444.933 462.805 462.933 439.205 453.867 435.738C450.667 434.538 444.267 438.138 428.4 450.271C364.933 498.671 314.4 533.338 272.667 556.938C235.733 577.871 163.067 614.005 157.733 614.005C155.867 614.005 155.867 613.738 157.6 611.605C158.667 610.405 166.667 597.605 175.333 583.338C210.933 524.805 286.133 410.271 314 372.005C350.267 322.271 378.8 289.471 428 240.671C453.067 215.871 473.867 194.005 478.8 187.338C483.867 180.538 493.6 163.871 502.8 146.005C531.733 89.738 541.467 76.538 568 56.2713C589.867 39.6046 610.8 32.0046 645.333 28.1379C651.333 27.4713 667.467 28.538 679.067 30.2713Z" fill="#FFEF00"/>
<path d="M667.467 96.0046C659.867 98.6713 655.867 102.005 652.4 108.671C646.8 119.205 648.933 132.805 657.6 142.671C667.733 154.138 681.2 157.071 694.4 150.538C714.533 140.538 718.133 116.005 701.467 101.871C692.533 94.1379 679.067 91.8713 667.467 96.0046Z" fill="black"/>
</g>
<defs>
<clipPath id="clip0_60_6">
<rect width="887" height="913" fill="white"/>
</clipPath>
</defs>
</svg>
